{
  "accessors": [
    {
      "bufferView": 1,
      "componentType": 5123,
      "type": "SCALAR",
      "count": 3726
    },
    {
      "bufferView": 2,
      "componentType": 5126,
      "type": "VEC3",
      "count": 2484,
      "min": [0, 9, 0],
      "max": [16, 16, 16]
    },
    {
      "bufferView": 2,
      "componentType": 5126,
      "type": "VEC3",
      "byteOffset": 12,
      "count": 2484
    },
    {
      "bufferView": 2,
      "componentType": 5126,
      "type": "VEC2",
      "byteOffset": 24,
      "count": 2484
    },
    {
      "bufferView": 3,
      "componentType": 5123,
      "type": "SCALAR",
      "count": 2544
    },
    {
      "bufferView": 4,
      "componentType": 5126,
      "type": "VEC3",
      "count": 1696,
      "min": [0, 10, 0],
      "max": [16, 16, 16]
    },
    {
      "bufferView": 4,
      "componentType": 5126,
      "type": "VEC3",
      "byteOffset": 12,
      "count": 1696
    },
    {
      "bufferView": 4,
      "componentType": 5126,
      "type": "VEC2",
      "byteOffset": 24,
      "count": 1696
    },
    {
      "bufferView": 5,
      "componentType": 5123,
      "type": "SCALAR",
      "count": 918
    },
    {
      "bufferView": 6,
      "componentType": 5126,
      "type": "VEC3",
      "count": 612,
      "min": [0, 10, 3],
      "max": [3, 16, 16]
    },
    {
      "bufferView": 6,
      "componentType": 5126,
      "type": "VEC3",
      "byteOffset": 12,
      "count": 612
    },
    {
      "bufferView": 6,
      "componentType": 5126,
      "type": "VEC2",
      "byteOffset": 24,
      "count": 612
    },
    {
      "bufferView": 7,
      "componentType": 5123,
      "type": "SCALAR",
      "count": 3312
    },
    {
      "bufferView": 8,
      "componentType": 5126,
      "type": "VEC3",
      "count": 2208,
      "min": [0, 0, 0],
      "max": [16, 6, 16]
    },
    {
      "bufferView": 8,
      "componentType": 5126,
      "type": "VEC3",
      "byteOffset": 12,
      "count": 2208
    },
    {
      "bufferView": 8,
      "componentType": 5126,
      "type": "VEC2",
      "byteOffset": 24,
      "count": 2208
    },
    {
      "bufferView": 9,
      "componentType": 5123,
      "type": "SCALAR",
      "count": 2352
    },
    {
      "bufferView": 10,
      "componentType": 5126,
      "type": "VEC3",
      "count": 1568,
      "min": [0, 0, 0],
      "max": [16, 5, 16]
    },
    {
      "bufferView": 10,
      "componentType": 5126,
      "type": "VEC3",
      "byteOffset": 12,
      "count": 1568
    },
    {
      "bufferView": 10,
      "componentType": 5126,
      "type": "VEC2",
      "byteOffset": 24,
      "count": 1568
    },
    {
      "bufferView": 11,
      "componentType": 5123,
      "type": "SCALAR",
      "count": 804
    },
    {
      "bufferView": 12,
      "componentType": 5126,
      "type": "VEC3",
      "count": 536,
      "min": [0, 0, 3],
      "max": [3, 5, 16]
    },
    {
      "bufferView": 12,
      "componentType": 5126,
      "type": "VEC3",
      "byteOffset": 12,
      "count": 536
    },
    {
      "bufferView": 12,
      "componentType": 5126,
      "type": "VEC2",
      "byteOffset": 24,
      "count": 536
    }
  ],
  "asset": {
    "generator": "goxel",
    "version": "2.0"
  },
  "bufferViews": [
    {
      "buffer": 0,
      "byteLength": 114
    },
    {
      "buffer": 2,
      "byteLength": 7452
    },
    {
      "buffer": 1,
      "byteLength": 79488,
      "byteStride": 32
    },
    {
      "buffer": 4,
      "byteLength": 5088
    },
    {
      "buffer": 3,
      "byteLength": 54272,
      "byteStride": 32
    },
    {
      "buffer": 6,
      "byteLength": 1836
    },
    {
      "buffer": 5,
      "byteLength": 19584,
      "byteStride": 32
    },
    {
      "buffer": 8,
      "byteLength": 6624
    },
    {
      "buffer": 7,
      "byteLength": 70656,
      "byteStride": 32
    },
    {
      "buffer": 10,
      "byteLength": 4704
    },
    {
      "buffer": 9,
      "byteLength": 50176,
      "byteStride": 32
    },
    {
      "buffer": 12,
      "byteLength": 1608
    },
    {
      "buffer": 11,
      "byteLength": 17152,
      "byteStride": 32
    }
  ],
  "buffers": [
    {
      "uri": "data:application/octet-stream;base64,",
      "byteLength": 114
    },
    {
      "uri": "data:application/octet-stream;base64,",
      "byteLength": 79488
    },
    {
      "uri": "data:application/octet-stream;base64,",
      "byteLength": 7452
    },
    {
      "uri": "data:application/octet-stream;base64,",
      "byteLength": 54272
    },
    {
      "uri": "data:application/octet-stream;base64,",
      "byteLength": 5088
    },
    {
      "uri": "data:application/octet-stream;base64,",
      "byteLength": 19584
    },
    {
      "uri": "data:application/octet-stream;base64,",
      "byteLength": 1836
    },
    {
      "uri": "data:application/octet-stream;base64,",
      "byteLength": 70656
    },
    {
      "uri": "data:application/octet-stream;base64,",
      "byteLength": 6624
    },
    {
      "uri": "data:application/octet-stream;base64,",
      "byteLength": 50176
    },
    {
      "uri": "data:application/octet-stream;base64,",
      "byteLength": 4704
    },
    {
      "uri": "data:application/octet-stream;base64,",
      "byteLength": 17152
    },
    {
      "uri": "data:application/octet-stream;base64,",
      "byteLength": 1608
    }
  ],
  "images": [
    {
      "bufferView": 0,
      "mimeType": "image/png"
    }
  ],
  "meshes": [
    {
      "primitives": [
        {
          "indices": 0,
          "material": 0,
          "attributes": {
            "POSITION": 1,
            "NORMAL": 2,
            "TEXCOORD_0": 3
          }
        }
      ]
    },
    {
      "primitives": [
        {
          "indices": 4,
          "material": 0,
          "attributes": {
            "POSITION": 5,
            "NORMAL": 6,
            "TEXCOORD_0": 7
          }
        }
      ]
    },
    {
      "primitives": [
        {
          "indices": 8,
          "material": 0,
          "attributes": {
            "POSITION": 9,
            "NORMAL": 10,
            "TEXCOORD_0": 11
          }
        }
      ]
    },
    {
      "primitives": [
        {
          "indices": 12,
          "material": 0,
          "attributes": {
            "POSITION": 13,
            "NORMAL": 14,
            "TEXCOORD_0": 15
          }
        }
      ]
    },
    {
      "primitives": [
        {
          "indices": 16,
          "material": 0,
          "attributes": {
            "POSITION": 17,
            "NORMAL": 18,
            "TEXCOORD_0": 19
          }
        }
      ]
    },
    {
      "primitives": [
        {
          "indices": 20,
          "material": 0,
          "attributes": {
            "POSITION": 21,
            "NORMAL": 22,
            "TEXCOORD_0": 23
          }
        }
      ]
    }
  ],
  "materials": [
    {
      "name": "Material.1",
      "pbrMetallicRoughness": {
        "baseColorTexture": {
          "index": 0
        },
        "metallicFactor": 0.200000003,
        "roughnessFactor": 0.5
      }
    }
  ],
  "nodes": [
    {
      "children": [ 7 ],
      "matrix": [1, 0, 0, 0, 0, 0, -1, 0, 0, 1, 0, 0, 0, 0, 0, 1]
    },
    {
      "mesh": 0,
      "translation": [-16, 0, 0]
    },
    {
      "mesh": 1,
      "translation": [0, 0, 0]
    },
    {
      "mesh": 2,
      "translation": [16, 0, 0]
    },
    {
      "mesh": 3,
      "translation": [-16, 16, 0]
    },
    {
      "mesh": 4,
      "translation": [0, 16, 0]
    },
    {
      "mesh": 5,
      "translation": [16, 16, 0]
    },
    {
      "children": [ 1, 2, 3, 4, 5, 6 ]
    }
  ],
  "scenes": [
    {
      "nodes": [ 0 ]
    }
  ],
  "textures": [
    {
      "source": 0
    }
  ]
}
